<svg width="41" height="45" viewBox="0 0 41 45" fill="none" xmlns="http://www.w3.org/2000/svg">
<path d="M29.6838 0C20.4252 0 19.4707 10.1775 19.8078 10.265C22.277 10.9062 30.301 7.69874 29.6838 0Z" fill="#F8F6F0"/>
<path d="M29.0674 10.4172C31.5364 10.4171 35.8563 11.0589 38.9433 14.9082C34.0045 18.7577 33.1818 21.9655 33.3873 23.8902C34.0037 29.6645 37.708 31.589 40.1778 32.8719C38.9433 35.0104 37.0907 39.2877 35.239 41.2124C31.8303 44.7555 30.9175 45.0618 25.9804 44.42C22.8574 44.0141 22.2778 43.1369 20.426 43.1369C18.5743 43.1369 17.525 43.6318 14.8709 44.42C10.5493 45.7033 8.08041 42.4955 6.84671 41.2122C4.05272 38.3058 -0.561031 31.5889 0.0561568 22.6069C0.541069 15.5499 6.24635 9.61723 12.4016 10.4172C17.339 11.059 18.5735 12.3421 20.426 12.3419C22.8942 12.3417 24.746 10.4174 29.0674 10.4172Z" fill="#F8F6F0"/>
</svg>
