<svg width="20" height="18" viewBox="0 0 20 18" fill="none" xmlns="http://www.w3.org/2000/svg">
<path d="M2.55957 5.4762H18.0557C18.3817 5.47625 18.653 5.72735 18.6787 6.05237L19.3701 14.7926C19.4909 16.3192 18.2843 17.6246 16.7529 17.6246H3.8623C2.33097 17.6246 1.12437 16.3192 1.24512 14.7926L1.93652 6.05237C1.96223 5.72732 2.2335 5.4762 2.55957 5.4762Z" stroke="black" stroke-opacity="0.7" stroke-width="0.75"/>
<path d="M5.00586 0.5H15.6084C16.3737 0.5 17.0164 1.07618 17.0996 1.83691L17.4014 4.60156H3.21289L3.51465 1.83691C3.59266 1.12381 4.16189 0.57302 4.86328 0.506836L5.00586 0.5Z" stroke="black" stroke-opacity="0.7"/>
<path d="M1.63574 11.2227L18.9798 11.2227" stroke="black" stroke-opacity="0.7" stroke-width="0.75"/>
<line x1="6.5293" y1="5.53839" x2="6.5293" y2="17.9999" stroke="black" stroke-opacity="0.7" stroke-width="0.75"/>
<path d="M13.0771 5.53839V17.9999" stroke="black" stroke-opacity="0.7" stroke-width="0.75"/>
</svg>
