<svg width="40" height="46" viewBox="0 0 40 46" fill="none" xmlns="http://www.w3.org/2000/svg">
<g filter="url(#filter0_d_2142_1211)">
<g filter="url(#filter1_i_2142_1211)">
<path d="M6.58315 9.41885C6.2855 8.16265 7.23828 6.95773 8.52926 6.95773H32.9217L30.4684 19.9003C30.1999 21.3165 28.9623 22.3416 27.5209 22.3416H12.0173C10.6269 22.3416 9.41873 21.3862 9.09816 20.0332L6.58315 9.41885Z" fill="#866655"/>
<rect x="31.7354" y="-3.05176e-05" width="2.96305" height="8.38459" rx="1.48153" transform="rotate(14.6267 31.7354 -3.05176e-05)" fill="#866655"/>
<path d="M36.0028 1.95795C36.0028 2.72714 35.7246 3.88093 34.0799 3.88093C32.593 3.88093 31.3877 3.61699 31.3877 2.34255C31.3877 0.0349731 32.4238 0.0349731 34.0799 0.0349731C35.7359 0.0349731 36.0028 1.18876 36.0028 1.95795Z" fill="#866655"/>
</g>
<g filter="url(#filter2_i_2142_1211)">
<path d="M14.7422 17.3589H17.6388V20.034H14.9491L14.7422 17.3589Z" fill="#F8F6F0"/>
<path d="M14.5107 13.5692H17.6391V16.2443H14.6612L14.5107 13.5692Z" fill="#F8F6F0"/>
<path d="M14.2236 9.77948H17.6375V12.4546H14.4675L14.2236 9.77948Z" fill="#F8F6F0"/>
<path d="M9.25879 9.77948H13.4745L13.7072 12.4546H9.57652L9.25879 9.77948Z" fill="#F8F6F0"/>
<path d="M9.74414 13.5692H13.7057L13.8457 16.2443H10.0688L9.74414 13.5692Z" fill="#F8F6F0"/>
<path d="M10.2305 17.3419L13.8694 17.359L14.0764 20.0341H10.7288L10.2305 17.3419Z" fill="#F8F6F0"/>
<path d="M18.6719 17.3589H21.0512V20.034H18.6719L18.6719 17.3589Z" fill="#F8F6F0"/>
<path d="M22.0859 17.359L24.845 17.3419L24.6722 20.0341H22.0859L22.0859 17.359Z" fill="#F8F6F0"/>
<path d="M18.6719 13.5692H21.0512V16.2443H18.6719L18.6719 13.5692Z" fill="#F8F6F0"/>
<path d="M22.0859 13.5692H25.1182L24.9262 16.2443H22.0859L22.0859 13.5692Z" fill="#F8F6F0"/>
<path d="M18.6719 9.77948H21.0512V12.4546H18.6719L18.6719 9.77948Z" fill="#F8F6F0"/>
<path d="M22.0859 9.77948H25.4527L25.1328 12.4546L22.0859 12.4546L22.0859 9.77948Z" fill="#F8F6F0"/>
<path d="M26.1218 9.77948H30.0835L29.7019 12.4546H25.9033L26.1218 9.77948Z" fill="#F8F6F0"/>
<path d="M25.879 13.5692H29.5347L29.221 16.2443H25.707L25.879 13.5692Z" fill="#F8F6F0"/>
<path d="M25.7065 17.3589H29.017L28.7456 20.034H25.5693L25.7065 17.3589Z" fill="#F8F6F0"/>
</g>
</g>
<g filter="url(#filter3_d_2142_1211)">
<circle cx="13.308" cy="28.1105" r="3.46136" fill="#25282D"/>
<g filter="url(#filter4_dd_2142_1211)">
<circle cx="13.3076" cy="28.1105" r="2.30757" fill="#25282D"/>
<circle cx="13.3076" cy="28.1105" r="2.18257" stroke="#1E1E1E" stroke-width="0.25"/>
</g>
</g>
<g filter="url(#filter5_d_2142_1211)">
<circle cx="26.3852" cy="28.1105" r="3.46136" fill="#25282D"/>
<g filter="url(#filter6_dd_2142_1211)">
<circle cx="26.3847" cy="28.1105" r="2.30757" fill="#25282D"/>
<circle cx="26.3847" cy="28.1105" r="2.18257" stroke="#1E1E1E" stroke-width="0.25"/>
</g>
</g>
<g filter="url(#filter7_i_2142_1211)">
<circle cx="26.3843" cy="28.1105" r="1.15379" fill="#866655"/>
<circle cx="13.3081" cy="28.1105" r="1.15379" fill="#866655"/>
<rect x="13.0039" y="24.8763" width="13.6173" height="1.88767" rx="0.943834" fill="#866655"/>
<path d="M25.0581 26.1393C24.9371 25.7277 25.1372 25.2728 25.5244 25.0792C25.9825 24.8502 26.5127 25.0756 26.6588 25.5615L27.2863 27.6493C27.4246 28.1096 27.1627 28.6154 26.7065 28.769C26.2642 28.9179 25.8046 28.6789 25.6731 28.2316L25.0581 26.1393Z" fill="#866655"/>
<rect width="1.71858" height="3.98097" rx="0.85929" transform="matrix(-0.947754 -0.319003 -0.263976 0.964529 14.834 25.4245)" fill="#866655"/>
</g>
<defs>
<filter id="filter0_d_2142_1211" x="2.52832" y="0.0349731" width="37.4746" height="30.3066" filterUnits="userSpaceOnUse" color-interpolation-filters="sRGB">
<feFlood flood-opacity="0" result="BackgroundImageFix"/>
<feColorMatrix in="SourceAlpha" type="matrix" values="0 0 0 0 0 0 0 0 0 0 0 0 0 0 0 0 0 0 127 0" result="hardAlpha"/>
<feOffset dy="4"/>
<feGaussianBlur stdDeviation="2"/>
<feComposite in2="hardAlpha" operator="out"/>
<feColorMatrix type="matrix" values="0 0 0 0 0 0 0 0 0 0 0 0 0 0 0 0 0 0 0.25 0"/>
<feBlend mode="normal" in2="BackgroundImageFix" result="effect1_dropShadow_2142_1211"/>
<feBlend mode="normal" in="SourceGraphic" in2="effect1_dropShadow_2142_1211" result="shape"/>
</filter>
<filter id="filter1_i_2142_1211" x="6.52832" y="-1.96503" width="31.4746" height="24.3066" filterUnits="userSpaceOnUse" color-interpolation-filters="sRGB">
<feFlood flood-opacity="0" result="BackgroundImageFix"/>
<feBlend mode="normal" in="SourceGraphic" in2="BackgroundImageFix" result="shape"/>
<feColorMatrix in="SourceAlpha" type="matrix" values="0 0 0 0 0 0 0 0 0 0 0 0 0 0 0 0 0 0 127 0" result="hardAlpha"/>
<feOffset dx="2" dy="-2"/>
<feGaussianBlur stdDeviation="2.15"/>
<feComposite in2="hardAlpha" operator="arithmetic" k2="-1" k3="1"/>
<feColorMatrix type="matrix" values="0 0 0 0 0 0 0 0 0 0 0 0 0 0 0 0 0 0 0.25 0"/>
<feBlend mode="normal" in2="shape" result="effect1_innerShadow_2142_1211"/>
</filter>
<filter id="filter2_i_2142_1211" x="9.25879" y="9.77948" width="21.8242" height="13.2546" filterUnits="userSpaceOnUse" color-interpolation-filters="sRGB">
<feFlood flood-opacity="0" result="BackgroundImageFix"/>
<feBlend mode="normal" in="SourceGraphic" in2="BackgroundImageFix" result="shape"/>
<feColorMatrix in="SourceAlpha" type="matrix" values="0 0 0 0 0 0 0 0 0 0 0 0 0 0 0 0 0 0 127 0" result="hardAlpha"/>
<feOffset dx="1" dy="3"/>
<feGaussianBlur stdDeviation="1.8"/>
<feComposite in2="hardAlpha" operator="arithmetic" k2="-1" k3="1"/>
<feColorMatrix type="matrix" values="0 0 0 0 0 0 0 0 0 0 0 0 0 0 0 0 0 0 0.25 0"/>
<feBlend mode="normal" in2="shape" result="effect1_innerShadow_2142_1211"/>
</filter>
<filter id="filter3_d_2142_1211" x="5.84668" y="24.6492" width="14.9229" height="14.9227" filterUnits="userSpaceOnUse" color-interpolation-filters="sRGB">
<feFlood flood-opacity="0" result="BackgroundImageFix"/>
<feColorMatrix in="SourceAlpha" type="matrix" values="0 0 0 0 0 0 0 0 0 0 0 0 0 0 0 0 0 0 127 0" result="hardAlpha"/>
<feOffset dy="4"/>
<feGaussianBlur stdDeviation="2"/>
<feComposite in2="hardAlpha" operator="out"/>
<feColorMatrix type="matrix" values="0 0 0 0 0 0 0 0 0 0 0 0 0 0 0 0 0 0 0.25 0"/>
<feBlend mode="normal" in2="BackgroundImageFix" result="effect1_dropShadow_2142_1211"/>
<feBlend mode="normal" in="SourceGraphic" in2="effect1_dropShadow_2142_1211" result="shape"/>
</filter>
<filter id="filter4_dd_2142_1211" x="0" y="18.8029" width="26.6152" height="26.6151" filterUnits="userSpaceOnUse" color-interpolation-filters="sRGB">
<feFlood flood-opacity="0" result="BackgroundImageFix"/>
<feColorMatrix in="SourceAlpha" type="matrix" values="0 0 0 0 0 0 0 0 0 0 0 0 0 0 0 0 0 0 127 0" result="hardAlpha"/>
<feOffset dy="1"/>
<feGaussianBlur stdDeviation="1.5"/>
<feColorMatrix type="matrix" values="0 0 0 0 0 0 0 0 0 0 0 0 0 0 0 0 0 0 0.3 0"/>
<feBlend mode="normal" in2="BackgroundImageFix" result="effect1_dropShadow_2142_1211"/>
<feColorMatrix in="SourceAlpha" type="matrix" values="0 0 0 0 0 0 0 0 0 0 0 0 0 0 0 0 0 0 127 0" result="hardAlpha"/>
<feMorphology radius="3" operator="dilate" in="SourceAlpha" result="effect2_dropShadow_2142_1211"/>
<feOffset dy="4"/>
<feGaussianBlur stdDeviation="4"/>
<feColorMatrix type="matrix" values="0 0 0 0 0 0 0 0 0 0 0 0 0 0 0 0 0 0 0.15 0"/>
<feBlend mode="normal" in2="effect1_dropShadow_2142_1211" result="effect2_dropShadow_2142_1211"/>
<feBlend mode="normal" in="SourceGraphic" in2="effect2_dropShadow_2142_1211" result="shape"/>
</filter>
<filter id="filter5_d_2142_1211" x="18.9238" y="24.6492" width="14.9229" height="14.9227" filterUnits="userSpaceOnUse" color-interpolation-filters="sRGB">
<feFlood flood-opacity="0" result="BackgroundImageFix"/>
<feColorMatrix in="SourceAlpha" type="matrix" values="0 0 0 0 0 0 0 0 0 0 0 0 0 0 0 0 0 0 127 0" result="hardAlpha"/>
<feOffset dy="4"/>
<feGaussianBlur stdDeviation="2"/>
<feComposite in2="hardAlpha" operator="out"/>
<feColorMatrix type="matrix" values="0 0 0 0 0 0 0 0 0 0 0 0 0 0 0 0 0 0 0.25 0"/>
<feBlend mode="normal" in2="BackgroundImageFix" result="effect1_dropShadow_2142_1211"/>
<feBlend mode="normal" in="SourceGraphic" in2="effect1_dropShadow_2142_1211" result="shape"/>
</filter>
<filter id="filter6_dd_2142_1211" x="13.0771" y="18.8029" width="26.6152" height="26.6151" filterUnits="userSpaceOnUse" color-interpolation-filters="sRGB">
<feFlood flood-opacity="0" result="BackgroundImageFix"/>
<feColorMatrix in="SourceAlpha" type="matrix" values="0 0 0 0 0 0 0 0 0 0 0 0 0 0 0 0 0 0 127 0" result="hardAlpha"/>
<feOffset dy="1"/>
<feGaussianBlur stdDeviation="1.5"/>
<feColorMatrix type="matrix" values="0 0 0 0 0 0 0 0 0 0 0 0 0 0 0 0 0 0 0.3 0"/>
<feBlend mode="normal" in2="BackgroundImageFix" result="effect1_dropShadow_2142_1211"/>
<feColorMatrix in="SourceAlpha" type="matrix" values="0 0 0 0 0 0 0 0 0 0 0 0 0 0 0 0 0 0 127 0" result="hardAlpha"/>
<feMorphology radius="3" operator="dilate" in="SourceAlpha" result="effect2_dropShadow_2142_1211"/>
<feOffset dy="4"/>
<feGaussianBlur stdDeviation="4"/>
<feColorMatrix type="matrix" values="0 0 0 0 0 0 0 0 0 0 0 0 0 0 0 0 0 0 0.15 0"/>
<feBlend mode="normal" in2="effect1_dropShadow_2142_1211" result="effect2_dropShadow_2142_1211"/>
<feBlend mode="normal" in="SourceGraphic" in2="effect2_dropShadow_2142_1211" result="shape"/>
</filter>
<filter id="filter7_i_2142_1211" x="12.1543" y="22.8763" width="17.3838" height="6.38803" filterUnits="userSpaceOnUse" color-interpolation-filters="sRGB">
<feFlood flood-opacity="0" result="BackgroundImageFix"/>
<feBlend mode="normal" in="SourceGraphic" in2="BackgroundImageFix" result="shape"/>
<feColorMatrix in="SourceAlpha" type="matrix" values="0 0 0 0 0 0 0 0 0 0 0 0 0 0 0 0 0 0 127 0" result="hardAlpha"/>
<feOffset dx="2" dy="-2"/>
<feGaussianBlur stdDeviation="2.15"/>
<feComposite in2="hardAlpha" operator="arithmetic" k2="-1" k3="1"/>
<feColorMatrix type="matrix" values="0 0 0 0 0 0 0 0 0 0 0 0 0 0 0 0 0 0 0.25 0"/>
<feBlend mode="normal" in2="shape" result="effect1_innerShadow_2142_1211"/>
</filter>
</defs>
</svg>
