<svg width="39" height="38" viewBox="0 0 39 38" fill="none" xmlns="http://www.w3.org/2000/svg">
<path d="M7.10359 28.0227V26.0152C7.10359 24.7861 6.53857 23.6253 5.57126 22.8671L4.33401 21.8972C2.19499 20.2206 2.31498 16.9446 4.57092 15.4289L5.33435 14.916C6.44024 14.173 7.10359 12.9281 7.10359 11.5958V9.77273C7.10359 7.56359 8.89446 5.77273 11.1036 5.77273H12.4719C13.5971 5.77273 14.6702 5.29885 15.4281 4.46729L16.6086 3.17225C18.1714 1.4576 20.8604 1.42791 22.4608 3.10761L23.8178 4.53192C24.5727 5.32429 25.6194 5.77273 26.7138 5.77273H27.9662C30.1753 5.77273 31.9662 7.56359 31.9662 9.77273V11.7555C31.9662 12.9986 32.5441 14.171 33.5301 14.9281L34.3587 15.5644C36.3453 17.0898 36.4571 20.045 34.5915 21.7163L33.2972 22.8758C32.4502 23.6346 31.9662 24.718 31.9662 25.8552V28.0227C31.9662 30.2319 30.1753 32.0227 27.9662 32.0227H26.7627C25.6397 32.0227 24.5684 32.4948 23.8106 33.3236L22.4683 34.7917C20.8892 36.5188 18.1712 36.5274 16.5813 34.8103L15.1874 33.305C14.4303 32.4875 13.3666 32.0227 12.2524 32.0227H11.1036C8.89445 32.0227 7.10359 30.2319 7.10359 28.0227Z" fill="#866655" stroke="black" stroke-opacity="0.85"/>
<path d="M12.7271 19.2954L19.0907 25.6591L26.2498 12.1364" stroke="#F8F6F0" stroke-width="2" stroke-linecap="round"/>
</svg>
