<svg width="19" height="21" viewBox="0 0 19 21" fill="none" xmlns="http://www.w3.org/2000/svg">
<circle cx="9.5" cy="10.5" r="9" stroke="black" stroke-opacity="0.7"/>
<path d="M10.5 3C10.5 2.72386 10.2761 2.5 10 2.5C9.72386 2.5 9.5 2.72386 9.5 3H10.5ZM10.5 11V3H9.5V11H10.5Z" fill="black" fill-opacity="0.7"/>
<path d="M15 11C15.2761 11 15.5 10.7761 15.5 10.5C15.5 10.2239 15.2761 10 15 10V11ZM10.5 11H15V10H10.5V11Z" fill="black" fill-opacity="0.7"/>
<path d="M10 0.25C10.7919 0.25 11.51 0.430713 12.0273 0.639648C12.1167 0.675756 12.1991 0.713712 12.2744 0.75H7.72559C7.80091 0.713712 7.88328 0.675756 7.97266 0.639648C8.48996 0.430713 9.20806 0.25 10 0.25Z" stroke="black" stroke-opacity="0.7" stroke-width="0.5"/>
<path d="M10 20.25C11.0775 20.25 12.053 20.4345 12.7559 20.6475C12.8671 20.6812 12.9706 20.7159 13.0664 20.75H6.93359C7.02936 20.7159 7.13293 20.6812 7.24414 20.6475C7.94697 20.4345 8.92245 20.25 10 20.25Z" stroke="black" stroke-opacity="0.7" stroke-width="0.5"/>
</svg>
