<svg width="28" height="31" viewBox="0 0 28 31" fill="none" xmlns="http://www.w3.org/2000/svg">
<path d="M2 7.4H26.3M23.6 7.4V26.3C23.6 27.0161 23.3155 27.7028 22.8092 28.2092C22.3028 28.7155 21.6161 29 20.9 29H7.4C6.68392 29 5.99716 28.7155 5.49081 28.2092C4.98446 27.7028 4.7 27.0161 4.7 26.3V7.4M8.75 7.4V4.7C8.75 3.98392 9.03446 3.29716 9.54081 2.79081C10.0472 2.28446 10.7339 2 11.45 2H16.85C17.5661 2 18.2528 2.28446 18.7592 2.79081C19.2655 3.29716 19.55 3.98392 19.55 4.7V7.4M11.45 14.15V22.25M16.85 14.15V22.25" stroke="#482B1E" stroke-width="2.5" stroke-linecap="round" stroke-linejoin="round"/>
</svg>
