<svg width="24" height="26" viewBox="0 0 24 26" fill="none" xmlns="http://www.w3.org/2000/svg">
<path d="M0 4C0 1.79086 1.79086 0 4 0H19.4606C21.6697 0 23.4606 1.79086 23.4606 4V21.3481C23.4606 22.256 22.2159 22.5115 21.8583 21.677C21.8099 21.5641 21.7372 21.4632 21.6453 21.3816L19.9048 19.8357C19.1728 19.1855 18.2277 18.8264 17.2485 18.8264H4C1.79086 18.8264 0 17.0355 0 14.8264V4Z" fill="#F8F6F0"/>
<path d="M4 0.5H19.4609C21.3938 0.500202 22.9609 2.06713 22.9609 4V21.3477C22.9609 21.7118 22.461 21.8149 22.3174 21.4805C22.24 21.3 22.1243 21.1382 21.9775 21.0078L20.2373 19.4619C19.4137 18.7304 18.3496 18.3262 17.248 18.3262H4C2.067 18.3262 0.5 16.7592 0.5 14.8262V4L0.504883 3.82031C0.598423 1.97083 2.12727 0.5 4 0.5Z" stroke="black" stroke-opacity="0.8"/>
<line x1="6.70215" y1="7.32019" x2="16.7571" y2="7.32019" stroke="black" stroke-opacity="0.8"/>
<line x1="6.70215" y1="13.1853" x2="16.7571" y2="13.1853" stroke="black" stroke-opacity="0.8"/>
</svg>
