<svg width="23" height="23" viewBox="0 0 23 23" fill="none" xmlns="http://www.w3.org/2000/svg">
<circle cx="11.4951" cy="11.4951" r="11.4951" fill="#F8F6F0"/>
<circle cx="11.4951" cy="11.4951" r="10.9951" stroke="#482B1E" stroke-opacity="0.8"/>
<path d="M14.571 9.18182V11.483H8.25568V9.18182H14.571ZM9.57244 19V8.68324C9.57244 7.92472 9.7152 7.29616 10.0007 6.79759C10.2862 6.29474 10.6825 5.91974 11.1896 5.67259C11.6967 5.42116 12.2827 5.29545 12.9474 5.29545C13.3821 5.29545 13.7912 5.32954 14.1747 5.39773C14.5625 5.46165 14.8501 5.51918 15.0376 5.57031L14.5391 7.85866C14.424 7.82031 14.2834 7.78835 14.1172 7.76278C13.9553 7.73722 13.8018 7.72443 13.657 7.72443C13.2905 7.72443 13.0391 7.8054 12.9027 7.96733C12.7663 8.12926 12.6982 8.35085 12.6982 8.6321V19H9.57244Z" fill="#482B1E"/>
</svg>
