<svg width="32" height="32" viewBox="0 0 32 32" fill="none" xmlns="http://www.w3.org/2000/svg">
<circle cx="16" cy="16" r="15.5" fill="#F8F6F0" stroke="#D1CAC7"/>
<path d="M20.2216 11.7273V15.3068H10.3977V11.7273H20.2216ZM12.446 27V10.9517C12.446 9.77178 12.6681 8.79403 13.1122 8.01847C13.5563 7.23627 14.1728 6.65293 14.9616 6.26847C15.7505 5.87737 16.6619 5.68182 17.696 5.68182C18.3722 5.68182 19.0085 5.73485 19.6051 5.84091C20.2083 5.94034 20.6558 6.02983 20.9474 6.10938L20.1719 9.66903C19.9929 9.60937 19.7741 9.55966 19.5156 9.51989C19.2637 9.48011 19.0251 9.46023 18.7997 9.46023C18.2296 9.46023 17.8385 9.58617 17.6264 9.83807C17.4143 10.09 17.3082 10.4347 17.3082 10.8722V27H12.446Z" fill="#482B1E"/>
</svg>
