<svg width="37" height="32" viewBox="0 0 37 32" fill="none" xmlns="http://www.w3.org/2000/svg">
<path d="M3.45516 2.27856H25.9879C26.7657 2.27856 27.3962 2.91895 27.3962 3.70896L27.3965 5.97761C27.3966 6.35712 27.2482 6.72107 26.984 6.98941L17.9505 16.1654C17.6865 16.4336 17.538 16.7976 17.538 17.177V26.1968C17.538 27.1275 16.677 27.8105 15.7882 27.5848L12.9717 26.8695C12.3447 26.7102 11.9049 26.138 11.9049 25.4815V17.177C11.9049 16.7976 11.7565 16.4336 11.4924 16.1654L2.45935 6.98932C2.19524 6.72105 2.04688 6.35716 2.04688 5.97776V3.70915C2.04688 2.91907 2.67738 2.27856 3.45516 2.27856Z" stroke="#482B1E" stroke-width="2.89677" stroke-linecap="round" stroke-linejoin="round"/>
<path d="M19.6709 9.36011C20.057 9.36023 20.4271 9.51386 20.7002 9.78687C20.9734 10.0601 21.127 10.4308 21.127 10.8171V23.4968H22.498C23.776 23.4971 24.4208 25.0188 23.5684 25.9392L20.04 30.1736L20.0186 30.2L19.9941 30.2244C19.7211 30.4972 19.3509 30.651 18.9648 30.6511C18.5786 30.6511 18.2077 30.4974 17.9346 30.2244L17.9102 30.2L17.8887 30.1736L14.3545 25.9333C13.5059 25.0094 14.1588 23.4968 15.4297 23.4968H16.7998V10.8171C16.7998 10.4308 16.9534 10.0601 17.2266 9.78687C17.4998 9.51366 17.8705 9.36011 18.2568 9.36011H19.6709ZM28.1523 26.324C28.4904 26.324 28.816 26.4417 29.0752 26.6541L29.1826 26.7507L29.2793 26.8572C29.4917 27.1164 29.6094 27.4429 29.6094 27.781V29.1941C29.6094 29.5804 29.4558 29.9512 29.1826 30.2244C28.9094 30.4976 28.5387 30.6511 28.1523 30.6511H25.3252C24.9388 30.6511 24.5681 30.4976 24.2949 30.2244C24.0217 29.9512 23.8682 29.5805 23.8682 29.1941V27.781C23.8682 27.3947 24.0218 27.0239 24.2949 26.7507L24.4014 26.6541C24.6607 26.4415 24.987 26.324 25.3252 26.324H28.1523ZM30.9795 20.6697C31.3176 20.6697 31.6441 20.7863 31.9033 20.9988L32.0098 21.0955L32.1064 21.2029C32.3188 21.462 32.4364 21.7878 32.4365 22.1257V23.5398C32.4365 23.9261 32.2829 24.2969 32.0098 24.5701C31.7366 24.8432 31.3658 24.9968 30.9795 24.9968H25.3252C24.9389 24.9968 24.5681 24.8432 24.2949 24.5701C24.0217 24.2969 23.8682 23.9261 23.8682 23.5398V22.1257C23.8683 21.7395 24.0218 21.3686 24.2949 21.0955L24.4014 20.9988C24.6606 20.7864 24.9871 20.6697 25.3252 20.6697H30.9795ZM33.8066 15.0144C34.1929 15.0144 34.5637 15.168 34.8369 15.4412C35.1101 15.7144 35.2637 16.0851 35.2637 16.4714V17.8855C35.2636 18.2716 35.1099 18.6417 34.8369 18.9148C34.5637 19.188 34.193 19.3416 33.8066 19.3416H25.3252C24.9388 19.3416 24.5681 19.188 24.2949 18.9148C24.0219 18.6417 23.8683 18.2716 23.8682 17.8855V16.4714C23.8682 16.0851 24.0217 15.7144 24.2949 15.4412L24.4014 15.3445C24.6606 15.132 24.987 15.0144 25.3252 15.0144H33.8066Z" fill="#482B1E" stroke="#F8F6F0" stroke-width="1.5"/>
</svg>
