<svg width="10" height="15" viewBox="0 0 10 15" fill="none" xmlns="http://www.w3.org/2000/svg">
<path d="M4.84668 0.5C6.64812 0.500104 7.86138 1.34114 8.60156 2.53516C9.35535 3.75131 9.62468 5.35137 9.44824 6.81543C9.1619 9.191 8.01915 11.1351 6.89648 12.4941C6.33637 13.1722 5.78676 13.6974 5.36426 14.0498C5.1544 14.2248 4.97955 14.353 4.85449 14.4355C4.7344 14.3499 4.56747 14.2175 4.36816 14.0391C3.96194 13.6752 3.43606 13.1358 2.90332 12.4482C1.83451 11.0689 0.763429 9.1256 0.542969 6.82715C0.399277 5.3288 0.603421 3.72056 1.2793 2.50879C1.93727 1.32918 3.05164 0.5 4.84668 0.5Z" stroke="#482B1E"/>
<path d="M5.00031 3.83323C6.2324 3.83341 7.35661 5.02663 7.35676 6.66624C7.35676 8.30601 6.23248 9.50004 5.00031 9.50022C3.76803 9.50022 2.64289 8.30613 2.64289 6.66624C2.64304 5.02651 3.76811 3.83323 5.00031 3.83323Z" stroke="#482B1E"/>
</svg>
