<svg width="14" height="18" viewBox="0 0 14 18" fill="none" xmlns="http://www.w3.org/2000/svg">
<path d="M6.78516 0.75C9.33989 0.750073 11.0236 1.77454 12.0293 3.16504C13.0544 4.58238 13.419 6.44347 13.1797 8.14551C12.788 10.9312 11.2198 13.2301 9.6543 14.8545C8.87558 15.6625 8.11116 16.2891 7.52246 16.71C7.22755 16.9208 6.98281 17.0755 6.80859 17.1738C6.80383 17.1765 6.79855 17.1781 6.79395 17.1807C6.79298 17.1801 6.79198 17.1793 6.79102 17.1787C6.62375 17.0772 6.38883 16.9167 6.10547 16.6992C5.53988 16.2651 4.8079 15.6219 4.06738 14.8027C2.57754 13.1547 1.11092 10.8588 0.80957 8.16699C0.612813 6.4087 0.893237 4.53479 1.80859 3.12793C2.69672 1.76309 4.23651 0.75 6.78516 0.75Z" stroke="black" stroke-opacity="0.7" stroke-width="1.5"/>
<circle cx="7" cy="8" r="4" fill="#F8F6F0"/>
<circle cx="7" cy="8" r="3.25" stroke="black" stroke-opacity="0.7" stroke-width="1.5"/>
</svg>
