<svg width="14" height="20" viewBox="0 0 14 20" fill="none" xmlns="http://www.w3.org/2000/svg">
<path d="M6.96484 15.9392L6.99121 15.9402L7.01758 15.9392C8.92712 15.8524 10.5959 16.1066 11.7646 16.5203C12.3514 16.728 12.7833 16.9657 13.0566 17.1961C13.3369 17.4324 13.3808 17.598 13.3809 17.6697C13.3809 17.7844 13.3243 17.9538 13.0547 18.1716C12.7815 18.3922 12.3472 18.6105 11.751 18.8006C10.5644 19.1788 8.8831 19.4002 6.99023 19.4002C5.08581 19.4001 3.405 19.2216 2.2207 18.865C1.62629 18.686 1.1994 18.4745 0.932617 18.2527C0.678424 18.0413 0.599609 17.8506 0.599609 17.6697C0.599648 17.5306 0.665503 17.3453 0.914062 17.1218C1.16714 16.8943 1.57383 16.6641 2.14551 16.4666C3.28551 16.0728 4.95317 15.8518 6.96484 15.9392Z" stroke="#482B1E" stroke-width="1.2"/>
<path d="M7.12158 0.599609C11.3987 0.599809 14.4564 5.39839 11.5835 9.99512C10.6923 11.421 9.66472 13.2071 8.85889 14.6396C8.45639 15.3552 8.10973 15.9815 7.86377 16.4287C7.74082 16.6523 7.64269 16.8313 7.57568 16.9541C7.54231 17.0153 7.51689 17.0627 7.49951 17.0947C7.49094 17.1105 7.4844 17.1227 7.47998 17.1309C7.47777 17.1349 7.4762 17.1386 7.4751 17.1406C7.47456 17.1416 7.47341 17.1421 7.47314 17.1426V17.1436L7.13525 17.7676L6.77588 17.1553V17.1543C6.77551 17.1537 6.77466 17.1526 6.77393 17.1514C6.77245 17.1489 6.77 17.1446 6.76709 17.1396C6.76128 17.1297 6.75283 17.1147 6.7417 17.0957C6.7191 17.0571 6.68567 17.0005 6.64307 16.9277C6.55759 16.7816 6.43403 16.5707 6.28271 16.3115C5.9801 15.7932 5.56603 15.081 5.11768 14.3076C4.22851 12.7738 3.20348 10.9917 2.65967 9.99609C1.06608 7.64451 1.09247 5.29101 2.08936 3.51562C3.07891 1.75373 5.00551 0.599609 7.12158 0.599609Z" fill="#482B1E" stroke="#AF9B8C" stroke-width="0.8"/>
<circle cx="7.16993" cy="6.37735" r="2.86792" fill="#AF9B8C"/>
</svg>
