<svg width="50" height="50" viewBox="0 0 50 50" fill="none" xmlns="http://www.w3.org/2000/svg">
<path d="M47.689 23.7285C48.3556 24.1134 48.3556 25.0757 47.689 25.4606L13.7971 45.0281C13.1304 45.413 12.2971 44.9319 12.2971 44.162L12.2971 5.0271C12.2971 4.2573 13.1304 3.77617 13.7971 4.16107L47.689 23.7285Z" fill="#F8F6F0"/>
<path d="M35.345 33.0304C35.6087 33.3489 36.0647 33.3738 36.3634 33.0859C36.6622 32.798 36.6905 32.3064 36.4267 31.9879L35.345 33.0304ZM12.4049 4.15467L11.864 4.67593L35.345 33.0304L35.8858 32.5091L36.4267 31.9879L12.9457 3.63342L12.4049 4.15467Z" fill="#482B1E"/>
<path d="M38.1699 18.4369C38.4503 18.1319 38.4486 17.6393 38.166 17.3366C37.8834 17.0339 37.4269 17.0358 37.1465 17.3409L38.1699 18.4369ZM12.4051 45.3572L12.9168 45.9052L38.1699 18.4369L37.6582 17.8889L37.1465 17.3409L11.8934 44.8092L12.4051 45.3572Z" fill="#482B1E"/>
</svg>
