<svg width="20" height="22" viewBox="0 0 20 22" fill="none" xmlns="http://www.w3.org/2000/svg">
<path d="M13.6432 3.9712C13.7015 4.19079 13.761 4.46543 13.8172 4.7889C13.9591 5.60574 14.0698 6.66876 14.1036 7.80468C14.1375 8.94118 14.0935 10.1259 13.9374 11.1929C13.7788 12.2763 13.5155 13.1592 13.1602 13.7486C12.3302 15.1248 11.4071 15.8782 10.4478 16.1396C9.49982 16.3978 8.30406 16.2334 6.79724 15.3247C5.29023 14.4159 4.58631 13.4346 4.37239 12.4756C4.156 11.5052 4.39164 10.3371 5.2216 8.96095C5.57707 8.37167 6.23513 7.72683 7.11937 7.0811C7.99026 6.44513 9.01761 5.85348 10.0386 5.35312C11.0591 4.85304 12.0509 4.45493 12.8396 4.19933C13.1516 4.09822 13.4219 4.0221 13.6432 3.9712Z" fill="#E2E0DA" stroke="#2A6C34" stroke-width="2"/>
<path d="M9.91851 10.1487C9.31066 11.8386 8.15714 14.4333 6.94609 15.7594C5.66707 17.16 3.61918 17.866 2.11117 16.9565" stroke="#2A6C34" stroke-width="2" stroke-linecap="round"/>
</svg>
