<svg width="32" height="32" viewBox="0 0 32 32" fill="none" xmlns="http://www.w3.org/2000/svg">
<circle cx="16" cy="16" r="15.5" fill="#F8F6F0" stroke="#D1CAC7"/>
<path d="M16.4449 4.44142C17.9446 4.39323 19.4387 4.64716 20.8384 5.1881C22.2381 5.72905 23.5148 6.54598 24.5927 7.59034C25.6706 8.6347 26.5276 9.8852 27.1129 11.2675C27.6983 12.6498 27.9999 14.1357 27.9999 15.637C27.9999 17.1382 27.6983 18.6242 27.1129 20.0065C26.5276 21.3888 25.6706 22.6393 24.5927 23.6836C23.5148 24.728 22.2381 25.5449 20.8384 26.0859C19.4387 26.6268 17.9446 26.8807 16.4449 26.8326C15.3168 26.8357 14.1935 26.6866 13.1052 26.3894C12.9011 26.3336 12.6839 26.3499 12.4904 26.4355L10.2016 27.4466C10.0632 27.5075 9.91203 27.5334 9.76127 27.5222C9.61051 27.511 9.4648 27.463 9.33691 27.3823C9.20903 27.3017 9.10288 27.1908 9.02778 27.0596C8.95267 26.9283 8.91091 26.7806 8.90614 26.6294L8.84385 24.575C8.83865 24.4502 8.80839 24.3277 8.75488 24.2149C8.70136 24.1021 8.62569 24.0012 8.53237 23.9183C7.37436 22.8753 6.45221 21.597 5.82754 20.1689C5.20287 18.7408 4.89008 17.1957 4.91008 15.637C4.90131 14.1349 5.19633 12.6465 5.77739 11.2614C6.35845 9.87633 7.21353 8.62316 8.29121 7.57728C9.36889 6.5314 10.6469 5.71444 12.0483 5.17553C13.4497 4.63662 14.9445 4.38691 16.4449 4.44142Z" fill="#482B1E"/>
<path fill-rule="evenodd" clip-rule="evenodd" d="M23.673 13.9369C23.7772 13.7937 23.8202 13.6229 23.7945 13.4546C23.7687 13.2863 23.6758 13.1314 23.5322 13.0173C23.3886 12.9032 23.2035 12.8372 23.0098 12.831C22.816 12.8249 22.6259 12.8789 22.4733 12.9835L19.2855 15.2223C19.1495 15.3124 18.9838 15.3614 18.8132 15.3618C18.6427 15.3622 18.4766 15.314 18.3401 15.2244L15.2796 13.214C15.0625 13.0716 14.814 12.9702 14.55 12.916C14.2859 12.8618 14.0118 12.8561 13.7451 12.8992C13.4783 12.9423 13.2247 13.0332 13 13.1663C12.7754 13.2994 12.5847 13.4718 12.4398 13.6726L9.23833 18.019C9.13321 18.1621 9.08939 18.3332 9.11463 18.5019C9.13988 18.6706 9.23255 18.826 9.37622 18.9405C9.51989 19.055 9.70525 19.1213 9.89941 19.1275C10.0936 19.1338 10.284 19.0796 10.4369 18.9746L13.6246 16.7369C13.7607 16.6465 13.9267 16.5974 14.0975 16.597C14.2683 16.5966 14.4346 16.645 14.5712 16.7348L17.6293 18.7442C17.8464 18.8867 18.0949 18.9883 18.3592 19.0426C18.6234 19.0968 18.8976 19.1026 19.1645 19.0595C19.4314 19.0164 19.6852 18.9254 19.9099 18.7922C20.1347 18.659 20.3255 18.4865 20.4703 18.2855L23.673 13.9369Z" fill="#F8F6F0"/>
</svg>
