<svg width="23" height="23" viewBox="0 0 23 23" fill="none" xmlns="http://www.w3.org/2000/svg">
<circle cx="11.5049" cy="11.4951" r="11.4951" fill="#F8F6F0"/>
<circle cx="11.5049" cy="11.4951" r="10.9951" stroke="#482B1E" stroke-opacity="0.8"/>
<path d="M11.8244 3.19094C12.9019 3.15632 13.9753 3.33875 14.9809 3.72739C15.9865 4.11603 16.9037 4.70295 17.6782 5.45327C18.4526 6.20359 19.0683 7.102 19.4888 8.09512C19.9094 9.08824 20.1261 10.1558 20.1261 11.2344C20.1261 12.3129 19.9094 13.3805 19.4888 14.3736C19.0683 15.3667 18.4526 16.2651 17.6782 17.0154C16.9037 17.7658 15.9865 18.3527 14.9809 18.7413C13.9753 19.13 12.9019 19.3124 11.8244 19.2778C11.014 19.28 10.2069 19.1729 9.42505 18.9594C9.27836 18.9193 9.12236 18.931 8.9833 18.9925L7.33896 19.7189C7.23954 19.7627 7.1309 19.7813 7.02259 19.7733C6.91427 19.7652 6.80959 19.7307 6.71771 19.6728C6.62583 19.6148 6.54957 19.5352 6.49561 19.4409C6.44165 19.3466 6.41165 19.2405 6.40822 19.1318L6.36347 17.6558C6.35973 17.5662 6.33799 17.4782 6.29955 17.3971C6.2611 17.3161 6.20674 17.2436 6.13969 17.184C5.30772 16.4347 4.6452 15.5163 4.19641 14.4903C3.74762 13.4643 3.5229 12.3542 3.53727 11.2344C3.53097 10.1552 3.74292 9.08586 4.16038 8.09075C4.57784 7.09564 5.19218 6.1953 5.96643 5.44389C6.74068 4.69248 7.65885 4.10553 8.66571 3.71836C9.67256 3.33118 10.7465 3.15178 11.8244 3.19094Z" fill="#482B1E"/>
<path fill-rule="evenodd" clip-rule="evenodd" d="M17.0174 10.013C17.0923 9.9101 17.1232 9.78736 17.1047 9.66646C17.0861 9.54555 17.0194 9.43427 16.9162 9.3523C16.8131 9.27032 16.6801 9.22292 16.5409 9.21848C16.4017 9.21404 16.2651 9.25285 16.1554 9.32804L13.8652 10.9364C13.7675 11.0012 13.6484 11.0364 13.5259 11.0367C13.4034 11.037 13.2841 11.0023 13.186 10.938L10.9872 9.49359C10.8312 9.39133 10.6527 9.31844 10.463 9.27952C10.2732 9.24059 10.0764 9.23648 9.88472 9.26743C9.69308 9.29838 9.51083 9.36373 9.34944 9.45937C9.18805 9.555 9.05101 9.67885 8.94694 9.82312L6.64685 12.9458C6.57133 13.0486 6.53985 13.1715 6.55798 13.2927C6.57612 13.4139 6.6427 13.5255 6.74592 13.6078C6.84914 13.6901 6.98231 13.7377 7.12181 13.7422C7.2613 13.7467 7.3981 13.7077 7.50793 13.6323L9.79816 12.0247C9.89592 11.9597 10.0152 11.9244 10.1379 11.9241C10.2606 11.9239 10.3801 11.9586 10.4782 12.0231L12.6753 13.4667C12.8313 13.5691 13.0099 13.6421 13.1997 13.6811C13.3895 13.7201 13.5865 13.7243 13.7783 13.6933C13.97 13.6624 14.1524 13.597 14.3138 13.5013C14.4753 13.4055 14.6124 13.2816 14.7164 13.1372L17.0174 10.013Z" fill="#F8F6F0"/>
<path d="M16.5344 9.41833C16.6333 9.42149 16.7247 9.45552 16.7922 9.50916C16.859 9.56233 16.8962 9.62982 16.9065 9.69666C16.9166 9.76265 16.9011 9.83212 16.8567 9.89392L14.5549 13.0189L14.554 13.0199C14.4669 13.1407 14.3512 13.247 14.2122 13.3295C14.073 13.4119 13.9142 13.4684 13.7463 13.4955C13.5785 13.5226 13.4055 13.5188 13.2395 13.4847C13.0737 13.4506 12.9193 13.3871 12.7854 13.2992L10.5881 11.8558C10.4557 11.7688 10.297 11.7236 10.137 11.724C9.9772 11.7245 9.81951 11.7703 9.68774 11.8578L9.68286 11.8607L7.39185 13.4681C7.31921 13.5173 7.2262 13.5455 7.12817 13.5424C7.02914 13.5392 6.93786 13.5054 6.87036 13.4515C6.80339 13.3981 6.76616 13.3302 6.7561 13.2631C6.74615 13.1966 6.76139 13.1259 6.80688 13.0638L6.80786 13.0648L9.10767 9.94177L9.10962 9.93982C9.19669 9.81923 9.31253 9.71353 9.45142 9.63123C9.59036 9.54891 9.74867 9.49233 9.91626 9.46521C10.084 9.43811 10.2572 9.44093 10.4231 9.47498C10.5888 9.509 10.7433 9.57281 10.8772 9.66052L13.0764 11.1049C13.2087 11.1916 13.3668 11.2371 13.5266 11.2367C13.6863 11.2363 13.8441 11.1903 13.9758 11.1029L13.9797 11.1L16.2708 9.49158L16.2698 9.4906C16.3424 9.44151 16.4365 9.41523 16.5344 9.41833Z" stroke="#482B1E" stroke-opacity="0.8" stroke-width="0.4"/>
</svg>
