<svg width="24" height="23" viewBox="0 0 24 23" fill="none" xmlns="http://www.w3.org/2000/svg">
<circle cx="11.835" cy="11.4951" r="11.4951" fill="#F8F6F0"/>
<circle cx="11.835" cy="11.4951" r="10.9951" stroke="#482B1E" stroke-opacity="0.8"/>
<path d="M6.18904 15.4837L7.84502 20.1205C7.96847 20.4661 8.40989 20.5654 8.66944 20.3059L10.6007 18.3746C10.7653 18.21 11.0218 18.1808 11.2192 18.3042L13.5148 19.7389C13.7879 19.9096 14.1487 19.7814 14.2529 19.4768L18.8299 6.09779C18.9704 5.68722 18.557 5.30489 18.1586 5.47692L2.64308 12.1768C2.2747 12.3359 2.23433 12.8423 2.57286 13.0577L5.9866 15.2301C6.08041 15.2898 6.15164 15.379 6.18904 15.4837Z" fill="#482B1E"/>
<path d="M7.31934 14.5304L8.50699 18.4893L9.29876 16.114L16.0288 8.19629L7.31934 14.5304Z" fill="#F8F6F0" stroke="#482B1E" stroke-opacity="0.8"/>
</svg>
