<svg width="32" height="32" viewBox="0 0 32 32" fill="none" xmlns="http://www.w3.org/2000/svg">
<circle cx="16" cy="16" r="15.5" fill="#F8F6F0" stroke="#D1CAC7"/>
<path d="M8.11901 21.4883L10.5507 28.2971C10.6742 28.6427 11.1156 28.742 11.3751 28.4824L14.3924 25.4652C14.557 25.3005 14.8135 25.2713 15.0109 25.3947L18.5477 27.6052C18.8207 27.7759 19.1815 27.6477 19.2858 27.3431L25.8797 8.06862C26.0201 7.65804 25.6067 7.27572 25.2084 7.44774L2.86647 17.0954C2.49809 17.2544 2.45772 17.7608 2.79625 17.9762L7.91657 21.2346C8.01038 21.2943 8.08161 21.3836 8.11901 21.4883Z" fill="#482B1E"/>
<path d="M9.7146 20.2247L11.3677 25.7349L12.4697 22.4288L21.8372 11.4082L9.7146 20.2247Z" fill="#F8F6F0"/>
</svg>
