<svg width="22" height="23" viewBox="0 0 22 23" fill="none" xmlns="http://www.w3.org/2000/svg">
<path d="M9.81934 1C11.5817 1.00009 13.3975 2.92803 13.3975 5.84473C13.3974 8.7613 11.5816 10.6894 9.81934 10.6895C8.057 10.6895 6.24131 8.76136 6.24121 5.84473C6.24121 2.92796 8.05695 1 9.81934 1Z" stroke="#482B1E" stroke-width="2"/>
<path d="M12.5191 12.1088C11.1398 12.9483 9.08559 13.2712 7.09005 12.1411C6.26835 12.6577 2.51772 14.6274 1.80774 15.4347C0.046979 17.4367 1.51429 19.5678 2.89355 19.8584C3.53917 19.8584 13.3701 19.8907 13.3701 19.8584C13.3701 18.8574 13.781 18.0502 14.6907 17.4367C15.6004 16.8231 17.2438 17.2731 17.7427 18.1148C17.7716 18.1635 18.5351 17.2429 18.5351 17.2429C18.7405 15.5316 16.6569 14.5721 15.6885 14.0139C14.4559 13.3035 12.5547 12.0871 12.5191 12.1088Z" stroke="#482B1E" stroke-width="2"/>
<path d="M15.8059 19.8583L17.0388 21.2149C17.4332 21.6488 18.1144 21.6519 18.5127 21.2217L21.0002 18.5345" stroke="#482B1E" stroke-width="2" stroke-linecap="round"/>
</svg>
